<svg id="Grupo_1" data-name="Grupo 1" xmlns="http://www.w3.org/2000/svg" width="2000" height="2000" viewBox="0 0 2000 2000">
  <defs>
    <style>
      .cls-1 {
        stroke: #000;
        stroke-width: 59px;
      }

      .cls-1, .cls-2, .cls-3, .cls-4 {
        fill-rule: evenodd;
      }

      .cls-2 {
        fill: #fff;
      }

      .cls-3 {
        fill: #ababab;
      }
    </style>
  </defs>
  <path id="Elipse_1" data-name="Elipse 1" class="cls-1" d="M1000.01,205.708c438.67,0,794.29,355.615,794.29,794.288,0,222.134-52.28,394.694-207.3,530-296.55-51.7-972.052-19.12-1111,67-184.715-145.44-270.28-343.66-270.28-597C205.72,561.323,561.335,205.708,1000.01,205.708Z"/>
  <path id="Forma_1" data-name="Forma 1" class="cls-2" d="M473.691,1633.09s273.162-63.21,671,81c258.8-82.25,249.5-26.94,404-114,63.77-49.52,82-69,82-69l-171-289-21-8-43-95s0.09-33.03,1-41c-62.61-4.78-101,33-101,33l16,19-6,10-122-33-18-28s85.35-67.58-25-148c11.14-14.431,16-23,16-23l-48-28-23-62,2-58-52-41-34-40s-111.129-170.485-43,24c-3.007,25.077,0,100,0,100l34,57-43-3-14-55-40-4-38-98-4-43s-18.179-9.11-31-36-32.39-74.2-29,5c-17.567-20.642-86-172-86-172l-39-37-3-40-30-38-1-31s-30.471-84.415-96-120c-45.281-28.836-115.218-3.4-78,27-7.776,33.4-46.965,116.118,9,158,19.219,41.882,18,72,18,72l27,17,6,90,108,201,22,46-25,89-58,61,12,6,22,86-93,88,58,4s-135.94,77.74,9,159c12.957,28.02,15,28,15,28s-50.5,46.1-81,130c-7.178-12.46-9.314-20.06-10-31-36.644.19-60.241,7.23-90,43C448.405,1510.99,472,1632.66,473.691,1633.09Z"/>
  <path id="Forma_5" data-name="Forma 5" class="cls-3" d="M409.691,1482.09s0.28-.48.853-1.33c4.961-7.35,31.867-42.76,89.147-41.67-23.481-26.93-82.895-181.34-115-193s-6,79-6,79"/>
  <path id="Forma_6" data-name="Forma 6" class="cls-3" d="M778.691,1545.09v81l11-61,68,72,99,6-95-92Z"/>
  <path id="Forma_4" data-name="Forma 4" class="cls-3" d="M1396.69,1099.09l-25-34-52-99s-92.2-145.462-59,36a680.959,680.959,0,0,0,37,78l-2,52S1342.51,1093.85,1396.69,1099.09Z"/>
  <path id="Forma_3" data-name="Forma 3" class="cls-3" d="M1182.69,1127.09s-244.864-14.86-591,212c-50.792,41.04-56.876,80.7-121,200,115.141-130.18,648.009-368.69,923-351C1314.36,1165.52,1274.9,1144.41,1182.69,1127.09Z"/>
  <path id="Forma_2" data-name="Forma 2" class="cls-4" d="M1359.69,1220.09s-27.42,63-42,72c19.78,13.73,8,77,8,77s18.37,11.16,21,40c23.36-13.81,66-35,66-35Z"/>
  <path id="Forma_7" data-name="Forma 7" class="cls-3" d="M971.691,1501.09l19,104,18-4,22-133,104,82,4-3-107-106Z"/>
  <path id="Forma_8" data-name="Forma 8" class="cls-3" d="M1277.69,1373.09l-98,72-7,101,88-5,15-143,83,100,19-12Z"/>
  <path id="Forma_9" data-name="Forma 9" class="cls-3" d="M1429.69,1360.09l-108,64,38,43,82-7,5-58,22-4"/>
  <path id="Forma_10" data-name="Forma 10" class="cls-3" d="M628.691,772.088s25.937,135.854-78,201a82.523,82.523,0,0,0,30,2s-46.625-13.763,161-109C710.233,836.233,666.261,796.972,628.691,772.088Z"/>
  <path id="Forma_11" data-name="Forma 11" class="cls-3" d="M775.691,709.088s20.921-34.521,78-32c-20.013-21.875-30.272-40.695-41-63s-23.658-26.6-25,28C780.982,681.073,775.691,709.088,775.691,709.088Z"/>
  <path id="Forma_12" data-name="Forma 12" class="cls-3" d="M709.691,475.088s-158.537-8.034-190,98c-15.362-61.812-5-92-5-92s68.057-60.173,154-45C691.692,450.773,709.691,475.088,709.691,475.088Z"/>
  <path id="Forma_13" data-name="Forma 13" class="cls-3" d="M957.691,824.088s53.639-73.309,129-44c-35.89-36.073-91.262-99.56-107-121s-62.359-77.324-41,16S956.227,739.189,957.691,824.088Z"/>
</svg>
